<svg xmlns="http://www.w3.org/2000/svg" version="1.1" xmlns:xlink="http://www.w3.org/1999/xlink" xmlns:svgjs="http://svgjs.dev/svgjs" width="1000" height="623" viewBox="0 0 1000 623"><g transform="matrix(1,0,0,1,-0.6060606060606233,0.2522267206477409)"><svg viewBox="0 0 396 247" data-background-color="#ffffff" preserveAspectRatio="xMidYMid meet" height="623" width="1000" xmlns="http://www.w3.org/2000/svg" xmlns:xlink="http://www.w3.org/1999/xlink"><g id="tight-bounds" transform="matrix(1,0,0,1,0.2400000000000091,-0.09999999999999432)"><svg viewBox="0 0 395.52 247.2" height="247.2" width="395.52"><g><svg></svg></g><g><svg viewBox="0 0 395.52 247.2" height="247.2" width="395.52"><g transform="matrix(1,0,0,1,140.5280652818991,47.215199999999996)"><svg viewBox="0 0 114.46386943620178 152.7696" height="152.7696" width="114.46386943620178"><g><svg viewBox="0 0 114.46386943620178 152.7696" height="152.7696" width="114.46386943620178"><g><svg viewBox="0 0 114.46386943620178 152.7696" height="152.7696" width="114.46386943620178"><g><svg viewBox="0 0 114.46386943620178 152.7696" height="152.7696" width="114.46386943620178"><g><svg viewBox="0 0 114.46386943620178 152.7696" height="152.7696" width="114.46386943620178" id="textblock"><g><svg viewBox="0 0 114.46386943620178 152.7696" height="152.7696" width="114.46386943620178"><g transform="matrix(1,0,0,1,0,0)"><svg width="114.46386943620178" viewBox="3.25 -33.70000076293945 25.25 33.70000076293945" height="152.7696" data-palette-color="#7a26c1"><path d="M17.8 0L17.8 0 3.25 0 3.25-33.7 16.35-33.7Q21.9-33.7 24.8-31.08 27.7-28.45 27.7-24.4L27.7-24.4Q27.7-21.75 26.3-19.75 24.9-17.75 22.65-17.05L22.65-17.05Q28.5-15.3 28.5-9.15L28.5-9.15Q28.5-5.15 25.63-2.58 22.75 0 17.8 0ZM15.05-27.55L15.05-27.55 10.95-27.55 10.95-20 13.8-20Q16.8-20 18.32-21.1 19.85-22.2 19.85-24L19.85-24Q19.85-27.55 15.05-27.55ZM15.05-13.95L15.05-13.95 10.95-13.95 10.95-6.15 15-6.15Q20.7-6.15 20.7-10.05 20.7-13.95 15.05-13.95Z" opacity="1" transform="matrix(1,0,0,1,0,0)" fill="#7a26c1" class="undefined-text-0" data-fill-palette-color="primary" id="text-0"></path></svg></g></svg></g></svg></g></svg></g></svg></g></svg></g></svg></g><path d="M72.691 41.215L72.691 0 319.891 0 319.891 247.2 72.691 247.2 72.691 205.985 86.468 205.985 86.468 233.423 306.114 233.423 306.114 13.777 86.468 13.777 86.468 41.215Z" fill="#7a26c1" stroke="transparent" data-fill-palette-color="primary"></path></svg></g><defs></defs></svg><rect width="395.52" height="247.2" fill="none" stroke="none" visibility="hidden"></rect></g></svg></g></svg>